<svg xmlns="http://www.w3.org/2000/svg" width="256" height="256" viewBox="0 0 100 100"><rect width="100" height="100" rx="0" fill="#000000"></rect><path fill="#f6f6f6" d="M59.90 63.59L59.90 63.59Q52.79 71.96 42.84 71.96Q32.90 71.96 27.95 66.88Q23 61.79 23.09 54.23L23.09 54.23Q23 43.52 29.84 35.78Q36.68 28.04 47.75 28.04L47.75 28.04Q52.79 28.04 55.85 29.30L55.85 29.30Q61.16 31.46 61.16 33.35L61.16 33.35Q61.16 34.79 53.73 34.83Q46.31 34.88 41.31 39.96Q36.32 45.05 36.32 52.79L36.32 52.79Q36.32 56.84 38.70 59.58Q41.09 62.33 45.45 62.33Q49.82 62.33 52.70 60.53L52.70 60.53Q46.31 56.21 46.31 48.02L46.31 48.02Q46.22 43.70 49.41 40.14Q52.61 36.59 57.61 36.54Q62.60 36.50 64.76 39.29Q66.92 42.08 66.92 46.44Q66.92 50.81 64.85 55.67L64.85 55.67L65.39 55.67Q69.35 55.58 72.23 52.88L72.23 52.88Q73.31 51.80 74.08 50.99Q74.84 50.18 75.65 50.18L75.65 50.18Q76.91 50.18 76.91 53.15L76.91 53.15Q76.91 58.64 73.67 61.38Q70.43 64.13 66.52 64.13Q62.60 64.13 59.90 63.59ZM59.09 53.15L59.09 53.15Q60.62 49.91 60.62 46.85Q60.62 43.79 58.64 43.79L58.64 43.79Q57.83 43.79 57.29 44.96Q56.75 46.13 56.75 47.21L56.75 47.21Q56.75 50.81 59.09 53.15Z"></path></svg>